<svg width="566" height="90" viewBox="0 0 566 90" fill="none" xmlns="http://www.w3.org/2000/svg">
<path d="M22.6563 78.75H33.9888V90H22.6563V78.75Z" fill="black"/>
<path d="M67.9944 78.75H79.3269V90H67.9944V78.75Z" fill="black"/>
<path d="M22.6648 0H33.9973V11.25H22.6648V0Z" fill="black"/>
<path d="M67.9944 0H79.3269V11.25H67.9944V0Z" fill="black"/>
<path d="M79.3523 45.0084V22.5084H67.9945V11.25H56.6621V22.5084H45.3297V11.25H33.9973V22.5084H22.6648V45.0084H11.3324V56.2584H22.6648V67.5168H33.9973V78.7584H45.3297V67.5168H56.6621V78.7584H67.9945V67.5168H79.3523V56.2584H90.6678V45.0084H79.3523ZM45.3212 45.0084H33.9888V33.7584H45.3212V45.0084ZM67.986 45.0084H56.6536V33.7584H67.986V45.0084Z" fill="url(#paint0_radial_8_70)"/>
<path d="M90.6594 22.5H102V45.0168H90.6594V22.5Z" fill="url(#paint1_radial_8_70)"/>
<path d="M0 22.4916H11.3409V45.0084H0V22.4916Z" fill="url(#paint2_radial_8_70)"/>
<path d="M155.348 61.9264C157.621 62.144 159.616 62.5671 161.332 63.1957C163.049 63.8243 164.391 64.7552 165.358 65.9882C166.325 67.2455 166.808 68.9138 166.808 70.993C166.808 73.3141 166.023 75.3209 164.451 77.0133C162.88 78.7058 160.571 80.0114 157.524 80.9301C154.502 81.8489 150.779 82.3082 146.354 82.3082C139.923 82.3082 134.978 81.3774 131.521 79.5157C128.064 77.6782 126.335 75.1758 126.335 72.0085C126.335 71.1139 126.444 70.304 126.661 69.5786C126.879 68.8533 127.145 68.2489 127.459 67.7653L136.199 69.0346C136.054 69.2281 135.909 69.5303 135.764 69.9413C135.619 70.3765 135.547 70.8963 135.547 71.5008C135.547 72.9998 136.55 74.0757 138.557 74.7285C140.588 75.4055 143.283 75.744 146.644 75.744C149.11 75.744 151.165 75.5747 152.81 75.2362C154.478 74.8978 155.735 74.4142 156.581 73.7856C157.452 73.157 157.887 72.4195 157.887 71.5733C157.887 70.3161 157.319 69.5061 156.182 69.1434C155.046 68.7808 153.692 68.539 152.12 68.4181L137.505 67.0762C134.894 66.8103 132.742 66.0366 131.049 64.7552C129.381 63.4738 128.547 61.7813 128.547 59.6778C128.547 58.3964 128.886 57.2117 129.563 56.1237C130.264 55.0357 131.062 54.1291 131.956 53.4037C132.851 52.6542 133.612 52.1948 134.241 52.0256L139.681 54.7093C139.173 54.7819 138.569 55.1083 137.868 55.6885C137.191 56.2688 136.852 56.9579 136.852 57.7557C136.852 58.5052 137.191 59.1339 137.868 59.6416C138.545 60.1251 139.85 60.4636 141.784 60.6571L155.348 61.9264ZM159.664 27.2192H168.223L164.741 42.1611C164.088 44.9657 163.037 47.4802 161.586 49.7045C160.135 51.9289 158.201 53.6818 155.783 54.9632C153.366 56.2446 150.319 56.8853 146.644 56.8853C142.824 56.8853 139.524 56.2688 136.743 55.0357C133.987 53.7785 131.859 52.0256 130.36 49.7771C128.861 47.5043 128.112 44.8931 128.112 41.9435C128.112 38.9212 128.873 36.2617 130.397 33.9648C131.944 31.6437 134.06 29.8304 136.743 28.5248C139.451 27.2192 142.51 26.5664 145.919 26.5664C148.675 26.5664 151.153 27.0258 153.354 27.9445C155.554 28.8391 157.307 30.0117 158.612 31.4624C159.942 32.9131 160.655 34.4604 160.752 36.1045L158.612 36.5035L159.664 27.2192ZM146.608 49.5232C148.47 49.5232 150.077 49.221 151.431 48.6165C152.785 48.0121 153.837 47.1417 154.587 46.0053C155.336 44.8448 155.711 43.4425 155.711 41.7984C155.711 40.1785 155.336 38.7883 154.587 37.6277C153.837 36.4672 152.785 35.5847 151.431 34.9803C150.077 34.3516 148.482 34.0373 146.644 34.0373C144.855 34.0373 143.271 34.3516 141.893 34.9803C140.515 35.6089 139.427 36.5155 138.629 37.7003C137.856 38.8608 137.469 40.251 137.469 41.8709C137.469 43.4908 137.843 44.8811 138.593 46.0416C139.367 47.1779 140.43 48.0483 141.784 48.6528C143.163 49.2331 144.77 49.5232 146.608 49.5232Z" fill="black"/>
<path d="M186.288 66.5322C183.411 66.5322 180.884 66.085 178.708 65.1904C176.532 64.2716 174.828 62.9539 173.595 61.2373C172.362 59.5207 171.745 57.4535 171.745 55.0357C171.745 52.4003 172.459 50.2364 173.885 48.544C175.336 46.8274 177.282 45.5097 179.724 44.5909C182.166 43.648 184.874 43.0435 187.848 42.7776C192.248 42.3424 195.319 41.9314 197.059 41.5445C198.824 41.1335 199.707 40.4807 199.707 39.5861C199.707 39.5619 199.707 39.5499 199.707 39.5499C199.707 39.5257 199.707 39.5136 199.707 39.5136C199.707 37.8211 198.945 36.5155 197.422 35.5968C195.899 34.678 193.747 34.2187 190.967 34.2187C188.041 34.2187 185.793 34.7385 184.221 35.7781C182.674 36.7936 181.9 38.4135 181.9 40.6379H172.471C172.471 37.6156 173.268 35.0649 174.864 32.9856C176.484 30.8821 178.696 29.2864 181.501 28.1984C184.306 27.1104 187.485 26.5664 191.039 26.5664C194.352 26.5664 197.386 27.062 200.142 28.0533C202.898 29.0446 205.111 30.5436 206.779 32.5504C208.447 34.5571 209.281 37.0595 209.281 40.0576C209.281 40.5653 209.281 41.0731 209.281 41.5808C209.281 42.0885 209.281 42.5963 209.281 43.104V57.6107C209.281 58.5294 209.305 59.4361 209.354 60.3307C209.426 61.201 209.559 61.9868 209.753 62.688C209.995 63.4617 210.285 64.1145 210.623 64.6464C210.962 65.1783 211.228 65.541 211.421 65.7344H201.992C201.822 65.5651 201.581 65.2387 201.266 64.7552C200.976 64.2475 200.71 63.6672 200.468 63.0144C200.227 62.289 200.045 61.5154 199.924 60.6933C199.804 59.8471 199.743 58.9163 199.743 57.9008L201.629 59.2064C200.904 60.6812 199.792 61.9747 198.292 63.0869C196.818 64.1749 195.053 65.0211 192.998 65.6256C190.942 66.23 188.706 66.5322 186.288 66.5322ZM188.609 59.0251C190.592 59.0251 192.429 58.6866 194.122 58.0096C195.814 57.3326 197.18 56.293 198.22 54.8907C199.26 53.4642 199.779 51.6387 199.779 49.4144V44.2645L202.101 46.8757C200.553 47.456 198.691 47.9395 196.515 48.3264C194.339 48.6891 192.139 48.9792 189.915 49.1968C187.062 49.4627 184.91 49.9584 183.459 50.6837C182.033 51.4091 181.32 52.5938 181.32 54.2379C181.32 55.8336 181.924 57.0304 183.133 57.8283C184.342 58.6261 186.167 59.0251 188.609 59.0251Z" fill="black"/>
<path d="M242.073 65.7344V50.1035C242.073 48.677 242.073 47.4318 242.073 46.368C242.073 45.28 242.073 44.3733 242.073 43.648C242.073 42.7051 242.013 41.7259 241.892 40.7104C241.771 39.6707 241.505 38.7157 241.094 37.8453C240.683 36.9749 240.042 36.2738 239.172 35.7419C238.326 35.1858 237.153 34.9077 235.654 34.9077C234.203 34.9077 232.97 35.2099 231.955 35.8144C230.964 36.3947 230.141 37.1804 229.489 38.1717C228.86 39.1388 228.401 40.251 228.111 41.5083C227.82 42.7413 227.675 44.0107 227.675 45.3163L224.484 43.1765C224.484 40.0092 225.076 37.1804 226.261 34.6901C227.446 32.1998 229.126 30.2293 231.302 28.7787C233.502 27.3038 236.101 26.5664 239.099 26.5664C242.194 26.5664 244.648 27.2192 246.461 28.5248C248.275 29.8062 249.568 31.547 250.342 33.7472C251.14 35.9474 251.539 38.4135 251.539 41.1456C251.539 42.1611 251.539 43.515 251.539 45.2075C251.539 46.8757 251.539 48.8462 251.539 51.1189V65.7344H242.073ZM218.137 65.7344V27.2192H227.675V65.7344H218.137ZM265.864 65.7344V50.1397C265.864 48.6165 265.864 47.323 265.864 46.2592C265.864 45.1954 265.864 44.3008 265.864 43.5755C265.864 42.56 265.804 41.5445 265.683 40.5291C265.562 39.4894 265.296 38.5586 264.885 37.7365C264.474 36.8903 263.833 36.2133 262.963 35.7056C262.092 35.1737 260.908 34.9077 259.409 34.9077C257.934 34.9077 256.689 35.1979 255.673 35.7781C254.682 36.3584 253.884 37.1321 253.28 38.0992C252.675 39.0663 252.228 40.1543 251.938 41.3632C251.672 42.5721 251.539 43.781 251.539 44.9899L248.347 42.8864C248.347 39.8158 248.928 37.0475 250.088 34.5813C251.249 32.1152 252.917 30.1689 255.093 28.7424C257.269 27.2917 259.856 26.5664 262.854 26.5664C265.876 26.5664 268.306 27.1829 270.144 28.416C271.981 29.6491 273.311 31.3415 274.133 33.4933C274.979 35.621 275.402 38.0508 275.402 40.7829C275.402 41.8467 275.402 43.2007 275.402 44.8448C275.402 46.4889 275.402 48.4352 275.402 50.6837V65.7344H265.864Z" fill="black"/>
<path d="M288.133 49.5595V42.7776H315.079L313.991 44.5909C313.991 44.4459 313.991 44.2887 313.991 44.1195C313.991 43.926 313.991 43.7689 313.991 43.648C313.991 41.9797 313.616 40.4203 312.867 38.9696C312.117 37.4947 310.981 36.31 309.458 35.4155C307.935 34.4967 306 34.0373 303.655 34.0373C301.334 34.0373 299.315 34.533 297.599 35.5243C295.906 36.4914 294.589 37.8937 293.646 39.7312C292.727 41.5687 292.267 43.7689 292.267 46.3317C292.267 48.9671 292.715 51.2398 293.609 53.1499C294.504 55.0357 295.81 56.4864 297.526 57.5019C299.267 58.4931 301.382 58.9888 303.873 58.9888C305.565 58.9888 307.028 58.8316 308.261 58.5173C309.494 58.203 310.498 57.7799 311.271 57.248C312.069 56.6919 312.661 56.0995 313.048 55.4709C313.459 54.8423 313.701 54.2137 313.774 53.5851H323.276C323.13 55.205 322.586 56.7886 321.644 58.336C320.725 59.8592 319.431 61.2494 317.763 62.5067C316.095 63.7397 314.064 64.731 311.67 65.4805C309.301 66.2059 306.593 66.5685 303.546 66.5685C299.412 66.5685 295.797 65.7223 292.703 64.0299C289.608 62.3374 287.19 59.9801 285.449 56.9579C283.733 53.9356 282.874 50.4782 282.874 46.5856C282.874 42.5963 283.745 39.1026 285.486 36.1045C287.251 33.1065 289.693 30.7733 292.811 29.1051C295.93 27.4126 299.509 26.5664 303.546 26.5664C307.705 26.5664 311.295 27.4126 314.318 29.1051C317.364 30.7975 319.709 33.1548 321.353 36.1771C322.997 39.1751 323.82 42.6688 323.82 46.6581C323.82 47.1659 323.807 47.7099 323.783 48.2901C323.759 48.8704 323.723 49.2935 323.674 49.5595H288.133Z" fill="black"/>
<path d="M350.723 66.5322C346.661 66.5322 343.071 65.6981 339.952 64.0299C336.833 62.3616 334.391 60.0163 332.626 56.9941C330.861 53.9719 329.979 50.4299 329.979 46.368C329.979 42.3303 330.861 38.8245 332.626 35.8507C334.391 32.8768 336.833 30.592 339.952 28.9963C343.071 27.3764 346.661 26.5664 350.723 26.5664C353.77 26.5664 356.465 27.0137 358.811 27.9083C361.156 28.8028 363.126 29.9996 364.722 31.4987C366.342 32.9735 367.575 34.6055 368.421 36.3947C369.268 38.1596 369.691 39.9246 369.691 41.6896C369.691 41.7379 369.691 41.7863 369.691 41.8347C369.691 41.883 369.691 41.9314 369.691 41.9797H360.225C360.225 41.8588 360.213 41.7259 360.189 41.5808C360.165 41.4357 360.14 41.2907 360.116 41.1456C359.923 39.9125 359.427 38.8003 358.629 37.8091C357.831 36.7936 356.768 35.9836 355.438 35.3792C354.108 34.7747 352.5 34.4725 350.614 34.4725C348.608 34.4725 346.77 34.9198 345.102 35.8144C343.458 36.6848 342.14 38.0025 341.149 39.7675C340.182 41.5324 339.698 43.7326 339.698 46.368C339.698 48.9792 340.182 51.2035 341.149 53.0411C342.116 54.8544 343.421 56.2446 345.066 57.2117C346.734 58.1547 348.583 58.6261 350.614 58.6261C352.766 58.6261 354.519 58.2997 355.873 57.6469C357.251 56.9699 358.291 56.0754 358.992 54.9632C359.693 53.8268 360.092 52.5938 360.189 51.264H369.691C369.691 53.0531 369.28 54.8544 368.458 56.6677C367.636 58.4569 366.427 60.101 364.831 61.6C363.235 63.099 361.253 64.2958 358.883 65.1904C356.538 66.085 353.818 66.5322 350.723 66.5322Z" fill="black"/>
<path d="M396.514 66.496C392.453 66.496 388.874 65.6498 385.779 63.9573C382.685 62.2407 380.255 59.8713 378.49 56.8491C376.749 53.8268 375.879 50.3694 375.879 46.4768C375.879 42.56 376.749 39.1147 378.49 36.1408C380.255 33.1427 382.685 30.7975 385.779 29.1051C388.874 27.4126 392.453 26.5664 396.514 26.5664C400.576 26.5664 404.155 27.4126 407.249 29.1051C410.344 30.7975 412.762 33.1427 414.503 36.1408C416.268 39.1147 417.15 42.56 417.15 46.4768C417.15 50.3694 416.268 53.8268 414.503 56.8491C412.762 59.8713 410.344 62.2407 407.249 63.9573C404.155 65.6498 400.576 66.496 396.514 66.496ZM396.514 58.6987C398.715 58.6987 400.637 58.1909 402.281 57.1754C403.925 56.16 405.206 54.7456 406.125 52.9323C407.044 51.0947 407.503 48.9429 407.503 46.4768C407.503 44.0107 407.044 41.883 406.125 40.0939C405.206 38.2805 403.925 36.8782 402.281 35.8869C400.637 34.8956 398.715 34.4 396.514 34.4C394.338 34.4 392.416 34.8956 390.748 35.8869C389.104 36.8782 387.823 38.2805 386.904 40.0939C385.985 41.883 385.526 44.0107 385.526 46.4768C385.526 48.9429 385.985 51.0947 386.904 52.9323C387.823 54.7456 389.104 56.16 390.748 57.1754C392.416 58.1909 394.338 58.6987 396.514 58.6987Z" fill="black"/>
<path d="M457.567 27.2192L445.49 65.7344H432.688L420.321 27.2192H430.186L439.869 62.3979H438.346L447.703 27.2192H457.567Z" fill="black"/>
<path d="M465.5 49.5595V42.7776H492.446L491.358 44.5909C491.358 44.4459 491.358 44.2887 491.358 44.1195C491.358 43.926 491.358 43.7689 491.358 43.648C491.358 41.9797 490.983 40.4203 490.234 38.9696C489.484 37.4947 488.348 36.31 486.825 35.4155C485.302 34.4967 483.367 34.0373 481.022 34.0373C478.701 34.0373 476.682 34.533 474.966 35.5243C473.273 36.4914 471.955 37.8937 471.012 39.7312C470.094 41.5687 469.634 43.7689 469.634 46.3317C469.634 48.9671 470.082 51.2398 470.976 53.1499C471.871 55.0357 473.176 56.4864 474.893 57.5019C476.634 58.4931 478.749 58.9888 481.24 58.9888C482.932 58.9888 484.395 58.8316 485.628 58.5173C486.861 58.203 487.864 57.7799 488.638 57.248C489.436 56.6919 490.028 56.0995 490.415 55.4709C490.826 54.8423 491.068 54.2137 491.14 53.5851H500.642C500.497 55.205 499.953 56.7886 499.01 58.336C498.092 59.8592 496.798 61.2494 495.13 62.5067C493.462 63.7397 491.431 64.731 489.037 65.4805C486.668 66.2059 483.96 66.5685 480.913 66.5685C476.779 66.5685 473.164 65.7223 470.07 64.0299C466.975 62.3374 464.557 59.9801 462.816 56.9579C461.1 53.9356 460.241 50.4782 460.241 46.5856C460.241 42.5963 461.112 39.1026 462.852 36.1045C464.617 33.1065 467.059 30.7733 470.178 29.1051C473.297 27.4126 476.876 26.5664 480.913 26.5664C485.072 26.5664 488.662 27.4126 491.684 29.1051C494.731 30.7975 497.076 33.1548 498.72 36.1771C500.364 39.1751 501.186 42.6688 501.186 46.6581C501.186 47.1659 501.174 47.7099 501.15 48.2901C501.126 48.8704 501.09 49.2935 501.041 49.5595H465.5Z" fill="black"/>
<path d="M536.286 65.7344V48.6528C536.286 47.6857 536.286 46.8395 536.286 46.1141C536.286 45.3646 536.286 44.6876 536.286 44.0832C536.286 42.3424 536.032 40.7829 535.525 39.4048C535.041 38.0025 534.195 36.9024 532.986 36.1045C531.801 35.3067 530.157 34.9077 528.054 34.9077C526.216 34.9077 524.584 35.355 523.158 36.2496C521.731 37.12 520.607 38.3289 519.785 39.8763C518.987 41.3995 518.588 43.1644 518.588 45.1712L515.36 43.1765C515.36 39.9609 516.086 37.1079 517.536 34.6176C519.011 32.1031 520.982 30.1326 523.448 28.7061C525.914 27.2796 528.646 26.5664 531.644 26.5664C534.739 26.5664 537.338 27.1708 539.442 28.3797C541.569 29.5886 543.165 31.3052 544.229 33.5296C545.317 35.7539 545.861 38.3651 545.861 41.3632C545.861 42.5237 545.861 43.8293 545.861 45.28C545.861 46.7307 545.861 48.1571 545.861 49.5595V65.7344H536.286ZM509.05 65.7344V27.2192H518.588V65.7344H509.05Z" fill="black"/>
<path d="M564.45 12.3136L562.637 51.5541H556.798L554.912 12.3136H564.45ZM559.736 66.7499C558.237 66.7499 556.967 66.23 555.928 65.1904C554.888 64.1507 554.368 62.8814 554.368 61.3824C554.368 59.9075 554.888 58.6503 555.928 57.6107C556.967 56.5468 558.237 56.0149 559.736 56.0149C561.21 56.0149 562.468 56.5468 563.507 57.6107C564.571 58.6503 565.103 59.9075 565.103 61.3824C565.103 62.8814 564.571 64.1507 563.507 65.1904C562.468 66.23 561.21 66.7499 559.736 66.7499Z" fill="black"/>
<defs>
<radialGradient id="paint0_radial_8_70" cx="0" cy="0" r="1" gradientUnits="userSpaceOnUse" gradientTransform="translate(51.3251 -0.930073) scale(70.2931 69.7819)">
<stop offset="0.508"/>
<stop offset="0.684"/>
<stop offset="0.878"/>
<stop offset="0.981"/>
</radialGradient>
<radialGradient id="paint1_radial_8_70" cx="0" cy="0" r="1" gradientUnits="userSpaceOnUse" gradientTransform="translate(50.2876 11.4298) scale(55.2495 54.8478)">
<stop offset="0.508"/>
<stop offset="0.684"/>
<stop offset="0.878"/>
<stop offset="0.981"/>
</radialGradient>
<radialGradient id="paint2_radial_8_70" cx="0" cy="0" r="1" gradientUnits="userSpaceOnUse" gradientTransform="translate(50.0276 2.16007) scale(63.5512 63.0891)">
<stop offset="0.508"/>
<stop offset="0.684"/>
<stop offset="0.878"/>
<stop offset="0.981"/>
</radialGradient>
</defs>
</svg>
